<svg xmlns="http://www.w3.org/2000/svg" width="24" height="24" viewBox="0 0 24 24" fill="none">
  <path d="M12 24C18.6274 24 24 18.6274 24 12C24 5.37258 18.6274 0 12 0C5.37258 0 0 5.37258 0 12C0 18.6274 5.37258 24 12 24Z" fill="black"/>
  <path fill-rule="evenodd" clip-rule="evenodd" d="M13.4626 9.5356L9.58638 13.412C9.53639 13.315 9.49129 13.2139 9.45085 13.1091C9.31548 12.7569 9.2478 12.3832 9.2478 11.9886C9.2478 11.5936 9.31548 11.22 9.45085 10.8678C9.58638 10.5155 9.77409 10.2098 10.0141 9.95031C10.2541 9.69103 10.5426 9.48593 10.8793 9.3349C11.2161 9.18401 11.5857 9.10849 11.9882 9.10849C12.3909 9.10849 12.7626 9.18589 13.103 9.34085C13.2296 9.39835 13.3495 9.46321 13.4626 9.5356ZM13.1205 14.6652C12.7837 14.8163 12.4141 14.8917 12.0116 14.8917C11.6089 14.8917 11.2373 14.8143 10.8967 14.6595C10.7702 14.6018 10.6504 14.5369 10.5374 14.4644L14.4135 10.5883C14.4634 10.6852 14.5086 10.786 14.549 10.891C14.6844 11.2432 14.7521 11.6169 14.7521 12.0117C14.7521 12.4066 14.6844 12.7801 14.549 13.1325C14.4135 13.4847 14.2258 13.7904 13.9857 14.0497C13.7457 14.309 13.4574 14.5142 13.1205 14.6652ZM13.707 15.8671C14.2258 15.6426 14.6748 15.3388 15.0541 14.9554C15.4334 14.5723 15.7275 14.1252 15.9366 13.6143C16.1457 13.1033 16.2502 12.5614 16.2502 11.9886C16.2502 11.4156 16.1457 10.8736 15.9366 10.3626C15.8126 10.0596 15.66 9.77971 15.4789 9.52291L18 7.0018L16.9982 6L14.4694 8.52879C14.2424 8.37399 13.9959 8.24019 13.7302 8.12722C13.2114 7.90662 12.6386 7.79616 12.0116 7.79616C11.3844 7.79616 10.8116 7.9085 10.2928 8.13302C9.77409 8.35754 9.32504 8.66134 8.94572 9.04457C8.5664 9.42781 8.27215 9.87498 8.06315 10.3859C7.85415 10.8968 7.74963 11.4388 7.74963 12.0117C7.74963 12.5846 7.85415 13.1263 8.06315 13.6375C8.18724 13.9406 8.33983 14.2204 8.52097 14.4774L6 16.9982L7.0018 18L9.53043 15.4713C9.75746 15.6262 10.0039 15.76 10.2696 15.8729C10.7884 16.0936 11.3612 16.2038 11.9882 16.2038C12.6154 16.2038 13.1882 16.0915 13.707 15.8671Z" fill="white"/>
</svg>