<svg width="24" height="24" viewBox="0 0 24 24" fill="currentColor" stroke="none" xmlns="http://www.w3.org/2000/svg">
<g id="Layer 2">
<g id="Layer 1">
<path id="Vector" d="M12 24C11.8806 24 11.7617 24 11.6433 23.9944L14.0956 17.2544H17.4706C18.0633 17.2544 18.7133 16.7989 18.915 16.2428L21.5756 8.93445C22.0106 7.73833 21.3256 6.75944 20.0522 6.75944H15.3711L11.4444 17.5556L9.21389 23.6744C3.93 22.4178 0 17.6667 0 12C0 6.49556 3.70667 1.85667 8.76 0.444444L6.46222 6.76111L2.64111 17.2544H5.18444L8.43333 8.33667H10.3444L7.09556 17.255H9.63778L12.6667 8.93445C13.1022 7.73833 12.4167 6.75944 11.145 6.75944H9.00611L11.4606 0.0127778C11.6394 0.00425926 11.8193 0 12 0C18.6272 0 24 5.37278 24 12C24 18.6272 18.6272 24 12 24ZM19.2606 8.33H17.35L14.6739 15.6722H16.585L19.2606 8.33Z" />
</g>
</g>
</svg>
