<svg xmlns="http://www.w3.org/2000/svg" width="24" height="24" viewBox="0 0 24 24" fill="none">
  <path d="M12 24C18.6274 24 24 18.6274 24 12C24 5.37258 18.6274 0 12 0C5.37258 0 0 5.37258 0 12C0 18.6274 5.37258 24 12 24Z" fill="black"/>
  <path d="M7.95016 13.8704C8.02359 13.8002 8.12315 13.7608 8.22694 13.7608H17.8038C17.9783 13.7608 18.0656 13.9627 17.9422 14.0807L16.0498 15.8903C15.9764 15.9606 15.8769 16 15.7731 16H6.19617C6.02172 16 5.93438 15.7981 6.05778 15.6801L7.95016 13.8704Z" fill="url(#paint0_linear_19531_828)"/>
  <path d="M7.95016 7.10967C8.02359 7.03944 8.12314 7 8.22694 7H17.8038C17.9783 7 18.0656 7.2019 17.9422 7.31993L16.0498 9.12959C15.9764 9.1998 15.8769 9.23923 15.7731 9.23923H6.19617C6.02172 9.23923 5.93438 9.03733 6.05778 8.91932L7.95016 7.10967Z" fill="url(#paint1_linear_19531_828)"/>
  <path d="M16.0498 10.4685C15.9764 10.3983 15.8769 10.3589 15.7731 10.3589H6.19617C6.02172 10.3589 5.93438 10.5608 6.05778 10.6788L7.95016 12.4884C8.02359 12.5586 8.12314 12.5981 8.22694 12.5981H17.8038C17.9783 12.5981 18.0656 12.3962 17.9422 12.2782L16.0498 10.4685Z" fill="url(#paint2_linear_19531_828)"/>
  <defs>
    <linearGradient id="paint0_linear_19531_828" x1="14.1127" y1="4.53127" x2="7.9305" y2="16.9041" gradientUnits="userSpaceOnUse">
      <stop stop-color="#00FFA3"/>
      <stop offset="1" stop-color="#DC1FFF"/>
    </linearGradient>
    <linearGradient id="paint1_linear_19531_828" x1="14.1127" y1="4.53127" x2="7.9305" y2="16.9041" gradientUnits="userSpaceOnUse">
      <stop stop-color="#00FFA3"/>
      <stop offset="1" stop-color="#DC1FFF"/>
    </linearGradient>
    <linearGradient id="paint2_linear_19531_828" x1="14.1127" y1="4.53127" x2="7.9305" y2="16.9041" gradientUnits="userSpaceOnUse">
      <stop stop-color="#00FFA3"/>
      <stop offset="1" stop-color="#DC1FFF"/>
    </linearGradient>
  </defs>
</svg>