<svg width="24" height="24" viewBox="0 0 24 24" fill="none" xmlns="http://www.w3.org/2000/svg">
<g clip-path="url(#clip0_2087_4904)">
<path d="M12 24C18.6274 24 24 18.6274 24 12C24 5.37258 18.6274 0 12 0C5.37258 0 0 5.37258 0 12C0 18.6274 5.37258 24 12 24Z" fill="#F0F0F0"/>
<path d="M7.30437 7.82625H23.2536C21.5581 3.25664 17.1596 0.000137329 12 0.000137329C8.68625 0.000137329 5.68657 1.34353 3.51514 3.51525L7.30437 7.82625Z" fill="black"/>
<path d="M7.30437 16.1745H23.2536C21.5581 20.7441 17.1596 24.0006 12 24.0006C8.68625 24.0006 5.68657 22.6572 3.51514 20.4855L7.30437 16.1745Z" fill="#6DA544"/>
<path d="M3.51471 3.51381C-1.17157 8.20009 -1.17157 15.7981 3.51471 20.4844C5.45126 18.5479 7.31375 16.6854 12 11.9991L3.51471 3.51381Z" fill="#D80027"/>
<path d="M4.7628 9.39177L5.42135 10.7689L6.90865 10.4252L6.24255 11.7987L7.43857 12.7471L5.94949 13.0827L5.95361 14.6091L4.7628 13.6542L3.57194 14.6091L3.57611 13.0827L2.08704 12.7471L3.28301 11.7987L2.617 10.4252L4.10421 10.7689L4.7628 9.39177Z" fill="#F0F0F0"/>
</g>
<defs>
<clipPath id="clip0_2087_4904">
<rect width="24" height="24" fill="white"/>
</clipPath>
</defs>
</svg>
