<svg width="24" height="24" viewBox="0 0 24 24" fill="none" xmlns="http://www.w3.org/2000/svg">
<g clip-path="url(#clip0_2087_5151)">
<path d="M23.2535 16.1744C23.7359 14.8744 23.9999 13.4683 23.9999 12.0005C23.9999 10.5326 23.7359 9.1265 23.2535 7.82657L11.9999 6.78308L0.746269 7.82657C0.263925 9.1265 -0.00012207 10.5326 -0.00012207 12.0005C-0.00012207 13.4683 0.263925 14.8744 0.746269 16.1744L11.9999 17.2178L23.2535 16.1744Z" fill="#6DA544"/>
<path d="M23.2536 7.82605C21.558 3.25644 17.1595 -6.10352e-05 11.9999 -6.10352e-05C6.84037 -6.10352e-05 2.44185 3.25644 0.746338 7.82605H23.2536Z" fill="#FFDA44"/>
<path d="M11.9998 23.9991C17.1594 23.9991 21.5579 20.7426 23.2534 16.173H0.746216C2.44173 20.7426 6.84025 23.9991 11.9998 23.9991Z" fill="#D80027"/>
<path d="M20.2292 10.153H13.9429L12.0003 4.17438L10.0577 10.153H3.77148L8.85719 13.8479L6.91459 19.8266L12.0003 16.1744L17.0861 19.8265L15.1435 13.8479L20.2292 10.153Z" fill="#F0F0F0"/>
</g>
<defs>
<clipPath id="clip0_2087_5151">
<rect width="24" height="24" fill="white"/>
</clipPath>
</defs>
</svg>
