<svg width="24" height="24" viewBox="0 0 24 24" fill="none" xmlns="http://www.w3.org/2000/svg">
<g clip-path="url(#clip0_2087_5082)">
<path d="M12 24C18.6274 24 24 18.6274 24 12C24 5.37258 18.6274 0 12 0C5.37258 0 0 5.37258 0 12C0 18.6274 5.37258 24 12 24Z" fill="#F0F0F0"/>
<path d="M23.9999 11.9997C23.9999 7.24218 21.2312 3.13143 17.2173 1.19043V22.8089C21.2312 20.868 23.9999 16.7572 23.9999 11.9997Z" fill="#D80027"/>
<path d="M-0.00012207 11.9997C-0.00012207 16.7572 2.76855 20.868 6.7825 22.809V1.19043C2.76855 3.13143 -0.00012207 7.24218 -0.00012207 11.9997Z" fill="#6DA544"/>
<path d="M8.86951 11.9993C8.86951 13.7282 10.2711 15.1297 12 15.1297C13.7289 15.1297 15.1304 13.7282 15.1304 11.9993V10.9558H8.86951V11.9993Z" fill="#6DA544"/>
<path d="M16.1734 9.91339H13.043C13.043 9.33711 12.5758 8.8699 11.9995 8.8699C11.4232 8.8699 10.956 9.33711 10.956 9.91339H7.82556C7.82556 10.4897 8.32755 10.9569 8.90378 10.9569H8.86905C8.86905 11.5332 9.3362 12.0004 9.91253 12.0004C9.91253 12.5767 10.3797 13.0438 10.956 13.0438H13.043C13.6193 13.0438 14.0865 12.5767 14.0865 12.0004C14.6628 12.0004 15.13 11.5332 15.13 10.9569H15.0952C15.6715 10.9569 16.1734 10.4897 16.1734 9.91339Z" fill="#FF9811"/>
</g>
<defs>
<clipPath id="clip0_2087_5082">
<rect width="24" height="24" fill="white"/>
</clipPath>
</defs>
</svg>
